<?xml version="1.0" standalone="no"?>
<!DOCTYPE svg PUBLIC "-//W3C//DTD SVG 20010904//EN"
 "http://www.w3.org/TR/2001/REC-SVG-20010904/DTD/svg10.dtd">
<svg version="1.0" xmlns="http://www.w3.org/2000/svg"
 width="230.000000pt" height="60.000000pt" viewBox="0 0 230.000000 60.000000"
 preserveAspectRatio="xMidYMid meet">
<metadata>
Created by potrace 1.10, written by Peter Selinger 2001-2011
</metadata>
<g transform="translate(0.000000,60.000000) scale(0.100000,-0.100000)"
fill="gold" stroke="none">
<path d="M1732 504 c-21 -15 -22 -20 -22 -195 l0 -179 -75 0 -75 0 0 63 c0 75
-6 86 -54 97 l-36 8 0 -94 c0 -82 2 -95 19 -104 26 -13 266 -13 292 0 18 10
19 23 19 215 l0 205 -23 0 c-12 0 -33 -7 -45 -16z m48 -194 c0 -183 -4 -200
-43 -200 -14 0 -17 4 -12 18 5 9 10 94 13 189 4 161 5 171 23 170 18 -1 19
-12 19 -177z m-245 -112 c1 -29 4 -61 9 -70 6 -14 4 -18 -11 -18 -32 0 -43 21
-43 85 0 68 5 79 29 65 11 -6 16 -24 16 -62z"/>
<path d="M2152 504 c-21 -15 -22 -21 -22 -170 0 -146 1 -154 20 -154 10 0 31
5 45 12 l25 11 0 159 c0 158 0 158 -23 158 -12 0 -33 -7 -45 -16z m46 -153
c-3 -120 -5 -136 -20 -139 -16 -3 -18 8 -18 131 0 73 2 136 5 139 3 2 12 5 20
5 13 0 15 -20 13 -136z"/>
<path d="M1094 456 c-26 -20 -7 -38 41 -38 48 0 67 18 41 38 -11 8 -29 14 -41
14 -12 0 -30 -6 -41 -14z"/>
<path d="M462 438 c-18 -18 5 -38 43 -38 38 0 61 20 43 38 -7 7 -26 12 -43 12
-17 0 -36 -5 -43 -12z"/>
<path d="M162 367 c-6 -7 -11 -52 -11 -100 l0 -87 189 0 c225 0 220 -2 220 99
0 76 -16 101 -63 101 -27 0 -27 0 -27 -78 l0 -79 -30 0 -30 0 0 73 c0 56 -3
73 -16 78 -31 12 -221 7 -232 -7z m70 -19 c-5 -7 -12 -24 -14 -38 -3 -28 -35
-40 -44 -16 -3 9 -3 27 0 41 5 20 13 25 37 25 24 0 29 -3 21 -12z m153 0 c2
-7 6 -43 8 -80 l5 -68 -29 0 c-29 0 -46 14 -29 25 16 10 12 88 -6 113 -15 21
-14 22 16 22 17 0 32 -6 35 -12z m135 2 c8 -5 11 -10 7 -10 -4 0 -3 -9 3 -20
6 -11 7 -20 2 -20 -5 0 -7 -20 -5 -44 5 -39 3 -44 -18 -48 -24 -4 -24 -4 -21
74 4 80 6 85 32 68z m-204 -21 c4 -7 7 -32 7 -57 l0 -45 -42 -1 c-24 -1 -41 4
-41 10 0 6 -14 11 -31 12 -18 0 -37 6 -43 12 -8 8 0 9 32 4 l42 -7 0 35 c0 19
3 38 7 41 11 11 61 8 69 -4z m-94 -121 c-13 -13 -52 0 -52 17 0 11 6 12 31 3
20 -7 27 -14 21 -20z"/>
<path d="M602 368 c-7 -7 -12 -43 -12 -90 0 -93 5 -98 109 -98 l71 0 0 -33 c0
-26 6 -36 25 -45 51 -24 65 -17 65 33 l0 45 270 0 270 0 0 84 c0 64 -4 88 -16
100 -13 14 -50 16 -245 16 l-229 0 0 -59 c0 -64 4 -69 56 -81 l34 -8 0 54 0
54 139 0 c77 0 146 -3 155 -6 12 -5 16 -20 16 -58 l0 -51 -225 0 -225 0 0 66
c0 37 -5 70 -12 77 -17 17 -229 17 -246 0z m64 -33 c-18 -27 -22 -100 -6 -110
16 -10 11 -25 -9 -25 -27 0 -37 19 -39 79 -3 60 9 81 45 81 25 0 25 -1 9 -25z
m158 16 c3 -4 6 -33 7 -62 1 -30 8 -61 16 -71 10 -11 11 -18 4 -23 -6 -3 -11
-22 -11 -41 0 -31 -3 -35 -22 -32 -16 2 -24 11 -26 28 -2 14 -9 31 -15 38 -7
9 -7 16 1 24 15 15 16 114 2 123 -5 3 -10 10 -10 16 0 11 47 12 54 0z m168 -3
c-7 -7 -12 -29 -12 -50 0 -26 -4 -38 -14 -38 -26 0 -31 18 -27 85 1 10 12 15
33 15 25 0 29 -3 20 -12z m362 6 c13 -5 16 -22 16 -80 0 -71 -1 -74 -24 -74
-23 0 -24 2 -19 63 4 51 2 66 -11 80 -16 16 -16 17 2 17 11 0 27 -3 36 -6z
m-586 -74 l3 -56 -46 1 -45 0 0 51 c0 28 3 54 7 58 4 4 23 6 43 4 l35 -3 3
-55z"/>
<path d="M1842 368 c-7 -7 -12 -41 -12 -84 0 -96 8 -104 106 -104 l74 0 0 -29
c0 -34 30 -61 67 -61 23 0 23 1 23 133 0 90 -4 137 -12 145 -17 17 -229 17
-246 0z m68 -27 c-14 -27 -13 -114 2 -129 9 -9 7 -12 -10 -12 -12 0 -22 5 -22
11 0 5 -4 7 -10 4 -10 -6 -13 9 -12 83 1 53 7 62 38 62 21 0 23 -3 14 -19z
m159 0 c10 -18 14 -221 4 -221 -19 0 -43 25 -43 45 0 13 -5 27 -11 31 -8 4 -8
9 0 17 14 14 14 102 1 128 -9 16 -7 19 14 19 15 0 30 -8 35 -19z m-61 -61 l3
-55 -46 0 -45 -1 0 52 c0 28 3 54 7 58 4 4 23 6 43 4 l35 -3 3 -55z"/>
</g>
</svg>
