<svg xmlns="http://www.w3.org/2000/svg" xmlns:xlink="http://www.w3.org/1999/xlink" width="31.9" height="31.9" viewBox="0 0 31.9 31.9"><defs><linearGradient id="a" x1="0.5" x2="0.5" y2="1" gradientUnits="objectBoundingBox"><stop offset="0" stop-color="#fcc201"/><stop offset="1" stop-color="#dba514"/></linearGradient></defs><g transform="translate(-684 -252)"><g transform="translate(684 252)"><path d="M0,0H31.9V31.9H0Z" fill="none" opacity="0"/><path d="M10.091,5.651,7.9,6.169a1.3,1.3,0,0,0-.984.984L6.449,9.107a1.332,1.332,0,0,1-2.313.558L.162,5.093A.663.663,0,0,1,.495,4.016,11.287,11.287,0,0,0,6.516.254.663.663,0,0,1,7.5.188L10.45,3.139C11.46,4.149,11.1,5.412,10.091,5.651Z" transform="translate(18.154 18.899)" fill="currentColor"/><path d="M.96,5.651l2.193.518a1.3,1.3,0,0,1,.984.984L4.6,9.107a1.332,1.332,0,0,0,2.313.558l3.974-4.572a.663.663,0,0,0-.332-1.077A11.287,11.287,0,0,1,4.536.254.663.663,0,0,0,3.552.188L.6,3.139C-.409,4.149-.05,5.412.96,5.651Z" transform="translate(2.628 18.899)" fill="currentColor"/><path d="M9.3,0a9.295,9.295,0,0,0-1.4,18.489,8.2,8.2,0,0,0,2.791,0A9.3,9.3,0,0,0,9.3,0Zm4.067,9.012-1.1,1.1a.942.942,0,0,0-.226.811l.319,1.369c.253,1.077-.319,1.5-1.276.93l-1.329-.784a.932.932,0,0,0-.877,0l-1.329.784c-.957.558-1.529.146-1.276-.93l.319-1.369a1,1,0,0,0-.226-.811l-1.13-1.1c-.651-.651-.439-1.3.465-1.449l1.422-.239a.969.969,0,0,0,.625-.465L8.533,5.29c.425-.851,1.117-.851,1.542,0l.784,1.568a.963.963,0,0,0,.638.465l1.422.239C13.81,7.709,14.023,8.361,13.372,9.012Z" transform="translate(6.646 2.658)" fill="currentColor"/></g></g></svg>